# xmcd
#
# Track frame offsets: 
#        150
#        14862
#        27787
#        40800
#        56787
#        68662
#        85337
#        100050
#        118575
#        133175
#        147562
#        163700
#        179875
#        193162
#        206900
#        218500
#        231412
#        243775
#        256862
#        270162
#
# Disc length: 3802 seconds
#
# Revision: 0
# Processed by: cddbd v1.4PL0 Copyright (c) Steve Scherf et al.
# Submitted via: ExactAudioCopy v0.90b2
#
DISCID=2c0ed814
DTITLE=Janie Frickie - Black and White - The First Word In Memory
DYEAR=1900
DGENRE=Country
TTITLE0=Till I Can't Take It Anymore
TTITLE1=He's Breathing Down My Neck
TTITLE2=Take Me A Little Vacation
TTITLE3=Nothing Left To Say
TTITLE4=Comin' Apart At The Seams
TTITLE5=Always Have, Always Will
TTITLE6=Don't Put It Past My Heart
TTITLE7=When A Woman Cries
TTITLE8=He's Making A Long Story Short
TTITLE9=I'd Take You Back Again
TTITLE10=Talkin' Tuff
TTITLE11=The First Word In Memory Is Me
TTITLE12=One Way Ticket
TTITLE13=First Time Out Of The Rain
TTITLE14=A Love Like Ours
TTITLE15=Your Heart's Not In It
TTITLE16=In Between Heartaches
TTITLE17=Another Man Like That
TTITLE18=Without Each Other
TTITLE19=Take It From The Top
EXTD=
EXTT0=
EXTT1=
EXTT2=
EXTT3=
EXTT4=
EXTT5=
EXTT6=
EXTT7=
EXTT8=
EXTT9=
EXTT10=
EXTT11=
EXTT12=
EXTT13=
EXTT14=
EXTT15=
EXTT16=
EXTT17=
EXTT18=
EXTT19=
PLAYORDER=
